
<svg width="29" height="29" viewBox="0 0 29 29" fill="none" xmlns="http://www.w3.org/2000/svg">
<path d="M2.59509 16.716C2.34053 16.4615 2.13547 16.1433 2.00112 15.7685C1.86677 15.3937 1.78191 14.9978 1.7607 14.5664C1.72534 13.8381 1.83141 13.1805 2.08597 12.5724C2.33346 11.9713 2.70115 11.4198 3.19613 10.9248C3.91737 10.2036 4.85783 9.60252 6.01748 9.13583C7.17714 8.66914 8.457 8.32266 9.85 8.10346C11.2571 7.88426 12.6855 7.77112 14.1492 7.76405C15.6129 7.77112 17.0413 7.88426 18.4343 8.10346C19.8202 8.32973 21.093 8.66914 22.2314 9.12876C23.377 9.59545 24.3174 10.1965 25.0528 10.9319C25.5336 11.4127 25.9084 11.9572 26.163 12.5512C26.4246 13.1522 26.5519 13.8169 26.5306 14.5452C26.5236 15.4432 26.2478 16.1574 25.7245 16.6807C25.5266 16.8787 25.2861 17.0342 25.0245 17.1261C24.7558 17.2251 24.4659 17.2605 24.1548 17.2039L20.202 16.5322C19.898 16.4827 19.6434 16.412 19.4242 16.32C19.2121 16.2352 19.0282 16.122 18.8939 15.9877C18.7242 15.818 18.604 15.5988 18.5403 15.3372C18.4696 15.0826 18.4343 14.7785 18.4343 14.4391L18.4131 13.3431C18.4131 13.1876 18.3565 13.0603 18.2434 12.9471C18.1868 12.8906 18.1302 12.8481 18.0595 12.8057C17.9817 12.7704 17.9181 12.7492 17.8615 12.7209C17.5009 12.6148 16.9776 12.5299 16.2988 12.4734C15.6129 12.4239 14.8987 12.3885 14.1563 12.3815C13.3997 12.3885 12.6855 12.4097 11.9925 12.4663C11.3137 12.5229 10.7975 12.6148 10.4298 12.7279C10.3803 12.7492 10.3167 12.7704 10.246 12.7986C10.1682 12.834 10.1046 12.8835 10.0409 12.9471C9.92071 13.0673 9.87121 13.2017 9.87121 13.3573L9.86414 14.425C9.86414 14.7785 9.82879 15.0826 9.75101 15.3301C9.68737 15.5917 9.57423 15.8039 9.39745 15.9806C9.2631 16.115 9.0934 16.2281 8.87419 16.32C8.65499 16.412 8.40043 16.4827 8.10345 16.5392L4.10122 17.2181C3.7901 17.2746 3.51433 17.2534 3.25977 17.1544C3.01228 17.0484 2.79308 16.914 2.59509 16.716Z" fill="white"/>
</svg>
